<?xml version="1.0" encoding="UTF-8"?>
<svg version="1.1" xmlns="http://www.w3.org/2000/svg" width="99" height="99">
<path d="M0 0 C1.21508743 -0.0127597 2.43017487 -0.02551941 3.68208313 -0.03866577 C5.63999031 -0.04200424 5.63999031 -0.04200424 7.63745117 -0.04541016 C9.00119667 -0.0518443 10.36494081 -0.05857312 11.72868347 -0.06558228 C14.58412879 -0.07753628 17.43945331 -0.08126513 20.29492188 -0.08007812 C23.93645103 -0.07987523 27.57719721 -0.10715436 31.21854115 -0.14162254 C34.03516629 -0.1639699 36.85160548 -0.16791327 39.66831017 -0.16685867 C41.65790472 -0.17033666 43.64744123 -0.19195224 45.63691711 -0.21395874 C53.98291764 -0.17202059 59.65674408 0.60024607 66.11010742 6.25537109 C66.64893555 6.90634766 67.18776367 7.55732422 67.74291992 8.22802734 C68.2972168 8.87642578 68.85151367 9.52482422 69.42260742 10.19287109 C72.38753488 14.49602257 73.12140929 18.24269752 73.15844727 23.42260742 C73.17120697 24.63769485 73.18396667 25.85278229 73.19711304 27.10469055 C73.19933868 28.40996201 73.20156433 29.71523346 73.20385742 31.06005859 C73.21029157 32.42380409 73.21702038 33.78754823 73.22402954 35.15129089 C73.23598354 38.00673621 73.2397124 40.86206073 73.23852539 43.7175293 C73.23832249 47.35905845 73.26560163 50.99980463 73.30006981 54.64114857 C73.32241717 57.45777372 73.32636054 60.2742129 73.32530594 63.09091759 C73.32878392 65.08051214 73.3503995 67.07004865 73.37240601 69.05952454 C73.33044082 77.41090486 72.48330809 82.91644959 67.04370117 89.49755859 C66.42881836 90.02736328 65.81393555 90.55716797 65.18041992 91.10302734 C64.27743164 91.91707031 64.27743164 91.91707031 63.35620117 92.74755859 C55.87221363 97.3883358 48.17381064 97.74709598 39.56323242 97.72412109 C37.82358719 97.73198387 37.82358719 97.73198387 36.04879761 97.74000549 C33.60651445 97.74640116 31.1642004 97.74512072 28.72192383 97.73657227 C25.01090926 97.72806857 21.30143886 97.75685114 17.59057617 97.78857422 C15.20646204 97.79018677 12.82234522 97.78960767 10.43823242 97.78662109 C9.34205597 97.79785507 8.24587952 97.80908905 7.1164856 97.82066345 C-1.90492003 97.74015917 -10.27505957 96.19704254 -17.13208008 89.97802734 C-24.01461995 82.87180493 -23.58681056 74.64937532 -23.56567383 65.32568359 C-23.57024274 63.96479534 -23.57555041 62.60390939 -23.58155823 61.24302673 C-23.59046072 58.39947093 -23.58809932 55.5561964 -23.578125 52.71264648 C-23.56663962 49.08682407 -23.58685325 45.46197626 -23.61604214 41.83628178 C-23.63447777 39.02821286 -23.63409719 36.22037436 -23.62840462 33.41226006 C-23.62817877 31.43155135 -23.64500683 29.45086406 -23.66221619 27.4702301 C-23.59817781 19.15503761 -22.80141742 13.47780296 -17.16723633 7.04833984 C-16.51625977 6.50951172 -15.8652832 5.97068359 -15.19458008 5.41552734 C-14.54618164 4.86123047 -13.8977832 4.30693359 -13.22973633 3.73583984 C-8.92658485 0.77091238 -5.1799099 0.03703797 0 0 Z M9.86791992 32.29052734 C5.16114292 37.79281595 2.46027777 42.95296863 2.86791992 50.29052734 C3.30905334 52.55921347 3.86287077 54.77144154 4.45385742 57.00537109 C5.15807265 60.89184191 4.48345486 64.41265724 3.86791992 68.29052734 C6.56152727 70.5728353 6.56152727 70.5728353 8.91870117 69.97802734 C9.66506836 69.75115234 10.41143555 69.52427734 11.18041992 69.29052734 C15.51356199 68.18107551 17.6368693 68.79203025 21.86791992 70.29052734 C30.42940285 70.38358694 36.75524832 67.2673618 42.86791992 61.29052734 C46.35821837 54.91170603 47.81638091 48.73664285 45.80541992 41.72802734 C43.5823839 35.87740072 40.19056881 31.77306918 34.93041992 28.41552734 C26.0218984 25.14300924 17.17340564 25.95910639 9.86791992 32.29052734 Z " fill="#827EFD" transform="translate(26.132080078125,1.70947265625)"/>
<path d="M0 0 C8.33754759 7.72748313 8.33754759 7.72748313 8.765625 12.765625 C8.88642303 20.13430488 8.12037671 24.41324802 3.1875 30.125 C-2.34412655 34.86639418 -7.4210716 34.77091132 -14.4375 34.375 C-16.29375 34.0965625 -16.29375 34.0965625 -18.1875 33.8125 C-21.55274475 33.35948628 -24.13822861 33.6507697 -27.4375 34.375 C-27.31181641 33.34439453 -27.31181641 33.34439453 -27.18359375 32.29296875 C-27.08175781 31.39191406 -26.97992188 30.49085937 -26.875 29.5625 C-26.77058594 28.66917969 -26.66617188 27.77585937 -26.55859375 26.85546875 C-26.28091291 24.24124428 -26.28091291 24.24124428 -27.4375 21.375 C-28.16829767 14.63009693 -27.70575501 8.84370174 -23.4375 3.375 C-17.07513198 -2.91089725 -7.96029115 -3.76304673 0 0 Z " fill="#857FFB" transform="translate(60.4375,33.625)"/>
<path d="M0 0 C1.22154282 -0.00953201 2.44308563 -0.01906403 3.7016449 -0.02888489 C5.66896324 -0.02751778 5.66896324 -0.02751778 7.67602539 -0.02612305 C9.04456206 -0.03001373 10.41309754 -0.03434917 11.78163147 -0.03910828 C14.64547648 -0.04655555 17.50919818 -0.04629007 20.37304688 -0.04101562 C24.03258313 -0.03522216 27.69161306 -0.05215565 31.35106564 -0.0753603 C34.17618228 -0.09013294 37.00117795 -0.09096459 39.82632637 -0.08785057 C41.82816422 -0.08860964 43.82998337 -0.10245297 45.83177185 -0.11653137 C47.05646683 -0.11030258 48.2811618 -0.10407379 49.54296875 -0.09765625 C51.15249672 -0.09860039 51.15249672 -0.09860039 52.79454041 -0.0995636 C56.3183767 0.33398404 58.76530561 1.53494872 61.83618164 3.2746582 C61.17618164 3.6046582 60.51618164 3.9346582 59.83618164 4.2746582 C59.08955765 3.96996613 58.34293365 3.66527405 57.57368469 3.35134888 C54.51363117 2.14779548 52.31361342 2.03307314 49.03613281 2.04760742 C47.89532761 2.04775848 46.7545224 2.04790955 45.57914734 2.04806519 C44.35814835 2.05838776 43.13714935 2.06871033 41.87915039 2.0793457 C40.62105057 2.0821756 39.36295074 2.08500549 38.06672668 2.08792114 C34.73430782 2.097207 31.40216617 2.11515344 28.06982422 2.1373291 C24.66449368 2.15784804 21.25913441 2.16693575 17.85375977 2.17700195 C11.18115746 2.1990418 4.50868555 2.2325043 -2.16381836 2.2746582 C-2.49381836 3.2646582 -2.82381836 4.2546582 -3.16381836 5.2746582 C-4.81381836 4.6146582 -6.46381836 3.9546582 -8.16381836 3.2746582 C-8.41131836 3.8521582 -8.65881836 4.4296582 -8.91381836 5.0246582 C-10.33199087 7.57736873 -12.07426965 9.25251429 -14.16381836 11.2746582 C-14.49381836 11.9346582 -14.82381836 12.5946582 -15.16381836 13.2746582 C-16.15381836 13.2746582 -17.14381836 13.2746582 -18.16381836 13.2746582 C-18.16381836 14.9246582 -18.16381836 16.5746582 -18.16381836 18.2746582 C-18.82381836 18.2746582 -19.48381836 18.2746582 -20.16381836 18.2746582 C-20.2102401 26.38519909 -20.24573741 34.49568408 -20.2674427 42.60632515 C-20.27786223 46.3727705 -20.29198782 50.13912469 -20.31469727 53.90551758 C-20.33649119 57.54299689 -20.34840075 61.18038873 -20.35357285 64.81792831 C-20.35725688 66.20294445 -20.36445083 67.58795601 -20.37527847 68.97293472 C-20.38987966 70.91867622 -20.39063602 72.86450647 -20.39086914 74.81030273 C-20.39531036 75.9161673 -20.39975159 77.02203186 -20.40432739 78.16140747 C-20.14813639 81.4776522 -19.34090522 84.17498033 -18.16381836 87.2746582 C-21.69820987 84.22222917 -23.00427467 81.00548787 -23.4312439 76.37345886 C-23.43886749 75.30726822 -23.44649109 74.24107758 -23.4543457 73.14257812 C-23.46710541 71.92749069 -23.47986511 70.71240326 -23.49301147 69.460495 C-23.49523712 68.15522354 -23.49746277 66.84995209 -23.49975586 65.50512695 C-23.50619001 64.14138145 -23.51291882 62.77763732 -23.51992798 61.41389465 C-23.53188198 58.55844933 -23.53561084 55.70312481 -23.53442383 52.84765625 C-23.53422093 49.2061271 -23.56150007 45.56538092 -23.59596825 41.92403698 C-23.61831561 39.10741183 -23.62225897 36.29097265 -23.62120438 33.47426796 C-23.62468236 31.4846734 -23.64629794 29.4951369 -23.66830444 27.50566101 C-23.62636629 19.15966049 -22.85409963 13.48583405 -17.19897461 7.0324707 C-16.54799805 6.49364258 -15.89702148 5.95481445 -15.22631836 5.3996582 C-14.57791992 4.84536133 -13.92952148 4.29106445 -13.26147461 3.7199707 C-8.94290883 0.74442259 -5.19862783 0.02233874 0 0 Z " fill="#9B81E1" transform="translate(26.163818359375,1.725341796875)"/>
<path d="M0 0 C0.33 0 0.66 0 1 0 C0.95969498 8.7058833 -2.30119569 13.30119569 -8.3125 19.3125 C-16.78987974 24.63550588 -25.27671442 24.34588763 -35 24 C-35 23.67 -35 23.34 -35 23 C-34.37351563 22.93941406 -33.74703125 22.87882812 -33.1015625 22.81640625 C-31.87566406 22.69072266 -31.87566406 22.69072266 -30.625 22.5625 C-29.81289062 22.48128906 -29.00078125 22.40007812 -28.1640625 22.31640625 C-25.95727195 22.10909886 -25.95727195 22.10909886 -24 21 C-21.67085177 20.63858045 -19.33746522 20.30300475 -17 20 C-16.79375 19.21625 -16.5875 18.4325 -16.375 17.625 C-15 15 -15 15 -11.875 13.6875 C-10.451875 13.3471875 -10.451875 13.3471875 -9 13 C-9 13.66 -9 14.32 -9 15 C-8.38125 14.34 -7.7625 13.68 -7.125 13 C-5 11 -5 11 -3 11 C-2.814375 9.6696875 -2.814375 9.6696875 -2.625 8.3125 C-2.05587264 5.29612498 -1.23385564 2.79673946 0 0 Z " fill="#5284EE" transform="translate(98,75)"/>
<path d="M0 0 C0.33 0 0.66 0 1 0 C0.67592824 7.29161461 -0.51147463 11.70262671 -5.99609375 16.88671875 C-12.91450599 22.48733818 -19.27042793 23.08805044 -28 23 C-28.33 22.01 -28.66 21.02 -29 20 C-29.845625 20.33 -30.69125 20.66 -31.5625 21 C-35.20989216 22.06105954 -38.22274664 22.15109013 -42 22 C-42.33 20.35 -42.66 18.7 -43 17 C-42.525625 17.53625 -42.05125 18.0725 -41.5625 18.625 C-37.99367502 20.53997926 -36.00418038 19.43537287 -32.2265625 18.4140625 C-29.0989695 17.83243994 -26.96235513 18.95083256 -24 20 C-16.14436003 20.08538739 -9.66525904 17.51214393 -4 12 C-1.99819156 8.06787628 -0.66091537 4.36204144 0 0 Z " fill="#777FDE" transform="translate(72,51)"/>
<path d="M0 0 C-0.75 2.9375 -0.75 2.9375 -2 6 C-4.125 6.875 -4.125 6.875 -6 7 C-6 8.65 -6 10.3 -6 12 C-6.66 12 -7.32 12 -8 12 C-7.98839844 12.78761719 -7.97679687 13.57523438 -7.96484375 14.38671875 C-7.8991982 22.31107387 -8.27682714 30.10966757 -9 38 C-9.33 38 -9.66 38 -10 38 C-10.09938095 33.83746725 -10.17170617 29.67557521 -10.21972656 25.51220703 C-10.23975843 24.09802205 -10.26699248 22.68391903 -10.30175781 21.27001953 C-10.35065489 19.22928581 -10.37305123 17.1896531 -10.390625 15.1484375 C-10.41157227 13.92302246 -10.43251953 12.69760742 -10.45410156 11.43505859 C-9.91198925 7.33424128 -8.56148938 5.20631082 -6 2 C-3.76335858 0.55276143 -2.64566409 0 0 0 Z " fill="#B185F0" transform="translate(14,8)"/>
<path d="M0 0 C0.66 0.33 1.32 0.66 2 1 C1.59007812 1.49886719 1.18015625 1.99773438 0.7578125 2.51171875 C-4.12424853 9.01724027 -5.28164158 14.98658792 -6 23 C-6.45375 22.34 -6.9075 21.68 -7.375 21 C-7.91125 20.34 -8.4475 19.68 -9 19 C-9.66 19 -10.32 19 -11 19 C-11 16.03 -11 13.06 -11 10 C-10.2575 9.814375 -9.515 9.62875 -8.75 9.4375 C-4.84445872 7.39596706 -4.03962222 4.86824904 -2 1 C-1.34 0.67 -0.68 0.34 0 0 Z " fill="#987CF5" transform="translate(35,33)"/>
<path d="M0 0 C0.33 0 0.66 0 1 0 C1.19682269 3.43703301 1.38085152 6.87463427 1.5625 10.3125 C1.61857422 11.28896484 1.67464844 12.26542969 1.73242188 13.27148438 C1.78076172 14.20927734 1.82910156 15.14707031 1.87890625 16.11328125 C1.94960327 17.40939331 1.94960327 17.40939331 2.02172852 18.73168945 C2 21 2 21 1 24 C4.465 23.505 4.465 23.505 8 23 C4.81237635 25.12508244 2.73487777 25.5020163 -1 26 C-0.91621094 25.31292969 -0.83242188 24.62585938 -0.74609375 23.91796875 C-0.64425781 23.01691406 -0.54242188 22.11585937 -0.4375 21.1875 C-0.33308594 20.29417969 -0.22867188 19.40085937 -0.12109375 18.48046875 C0.15658709 15.86624428 0.15658709 15.86624428 -1 13 C-1.09308544 11.33541327 -1.12996185 9.66718003 -1.125 8 C-1.12757812 7.13375 -1.13015625 6.2675 -1.1328125 5.375 C-1 3 -1 3 0 0 Z " fill="#8A7EDC" transform="translate(34,42)"/>
<path d="M0 0 C2 3 2 3 2 5 C1.40832031 5.12117188 0.81664062 5.24234375 0.20703125 5.3671875 C-4.03803585 6.26744643 -8.02439661 7.20456621 -12 9 C-11.34 7.68 -10.68 6.36 -10 5 C-9.34 5 -8.68 5 -8 5 C-7.67 4.01 -7.34 3.02 -7 2 C-3.4375 0.8125 -3.4375 0.8125 0 0 Z " fill="#9B84F8" transform="translate(49,24)"/>
<path d="M0 0 C0.33 0 0.66 0 1 0 C0.96126335 8.3671168 -2.09081329 12.70183948 -7.5703125 18.7265625 C-9 20 -9 20 -11 20 C-11 19.34 -11 18.68 -11 18 C-10.34 18 -9.68 18 -9 18 C-9 17.01 -9 16.02 -9 15 C-7.125 12.8125 -7.125 12.8125 -5 11 C-4.34 11 -3.68 11 -3 11 C-2.87625 10.113125 -2.7525 9.22625 -2.625 8.3125 C-2.05587264 5.29612498 -1.23385564 2.79673946 0 0 Z " fill="#5687EF" transform="translate(98,75)"/>
<path d="M0 0 C0 0.33 0 0.66 0 1 C-0.59167969 1.02578125 -1.18335937 1.0515625 -1.79296875 1.078125 C-7.21802811 1.46752567 -9.82688732 2.31784175 -14 6 C-14.99 5.67 -15.98 5.34 -17 5 C-17.45375 5.825 -17.9075 6.65 -18.375 7.5 C-18.91125 8.325 -19.4475 9.15 -20 10 C-20.66 10 -21.32 10 -22 10 C-21.15220218 6.29088453 -19.62780368 4.3679591 -16.625 2.1875 C-11.34911413 -0.92741416 -5.93837804 -0.44537835 0 0 Z " fill="#8E7FE2" transform="translate(57,32)"/>
<path d="M0 0 C2 2 2 2 2.265625 4.49609375 C2.26046875 5.46675781 2.2553125 6.43742187 2.25 7.4375 C2.25515625 8.40558594 2.2603125 9.37367187 2.265625 10.37109375 C2 13 2 13 0 16 C-0.39111271 14.08655626 -0.76231167 12.16903447 -1.125 10.25 C-1.33382812 9.18265625 -1.54265625 8.1153125 -1.7578125 7.015625 C-2.01099324 3.86311649 -1.70415175 2.60040934 0 0 Z " fill="#7D80E7" transform="translate(67,42)"/>
<path d="M0 0 C1.60600892 3.21201784 0.05786315 5.70887021 -1 9 C-1.33 9.66 -1.66 10.32 -2 11 C-4.86724686 10.42655063 -5.8614515 10.1385485 -8 8 C-6.50260417 6.79557292 -5.00520833 5.59114583 -3.5078125 4.38671875 C-1.74707893 2.87729455 -1.74707893 2.87729455 0 0 Z " fill="#6D7EFB" transform="translate(71,61)"/>
<path d="M0 0 C0 1.65 0 3.3 0 5 C-0.66 5 -1.32 5 -2 5 C-2 5.66 -2 6.32 -2 7 C-3.98 7.33 -5.96 7.66 -8 8 C-6.52980132 2.36423841 -6.52980132 2.36423841 -4 0.625 C-2 0 -2 0 0 0 Z " fill="#457FF9" transform="translate(89,88)"/>
<path d="M0 0 C0.86625 0.4640625 0.86625 0.4640625 1.75 0.9375 C3.84294184 1.92583364 5.74535275 2.5168613 8 3 C8 3.99 8 4.98 8 6 C8.78375 6.12375 9.5675 6.2475 10.375 6.375 C13 7 13 7 15 9 C9.05062987 8.43339332 4.97643497 6.37172196 1.125 1.75 C0.75375 1.1725 0.3825 0.595 0 0 Z " fill="#8382DE" transform="translate(8,89)"/>
<path d="M0 0 C0.474375 0.53625 0.94875 1.0725 1.4375 1.625 C4.53935666 3.28941089 5.31362053 2.91034112 8.625 2.0625 C9.40101562 1.82660156 10.17703125 1.59070313 10.9765625 1.34765625 C11.64429688 1.23292969 12.31203125 1.11820312 13 1 C13.66 1.66 14.32 2.32 15 3 C10.126739 4.5912689 6.19209404 5.21192221 1 5 C0.67 3.35 0.34 1.7 0 0 Z " fill="#7D7DD3" transform="translate(29,68)"/>
<path d="M0 0 C0.66 0.33 1.32 0.66 2 1 C1.38511719 1.90492187 1.38511719 1.90492187 0.7578125 2.828125 C-0.05042969 4.02695312 -0.05042969 4.02695312 -0.875 5.25 C-1.40867187 6.03890625 -1.94234375 6.8278125 -2.4921875 7.640625 C-3.81822015 9.71555692 -4.94928175 11.77614972 -6 14 C-5.87952582 8.97294083 -5.75412763 5.90127449 -2.4375 1.9375 C-1.633125 1.298125 -0.82875 0.65875 0 0 Z " fill="#9480E1" transform="translate(35,33)"/>
<path d="M0 0 C0 0.66 0 1.32 0 2 C1.32 2.66 2.64 3.32 4 4 C3.01 4.495 3.01 4.495 2 5 C0.66666667 4.33333333 -0.66666667 3.66666667 -2 3 C-3.99110401 2.61709538 -5.99100513 2.27395385 -8 2 C-4.77208445 -0.1519437 -3.71599191 -0.20086443 0 0 Z " fill="#8A81DC" transform="translate(60,27)"/>
<path d="M0 0 C0.99 0.33 1.98 0.66 3 1 C2.0479279 2.00596297 1.08812654 3.00461563 0.125 4 C-0.40867187 4.556875 -0.94234375 5.11375 -1.4921875 5.6875 C-3 7 -3 7 -5 7 C-5 6.34 -5 5.68 -5 5 C-4.34 5 -3.68 5 -3 5 C-3 4.01 -3 3.02 -3 2 C-2.01 1.34 -1.02 0.68 0 0 Z " fill="#5580DD" transform="translate(92,88)"/>
<path d="M0 0 C0.99 0.33 1.98 0.66 3 1 C2.45276317 4.37462715 1.9451 6.08235 0 9 C-0.87890625 2.84765625 -0.87890625 2.84765625 -1 1 C-0.67 0.67 -0.34 0.34 0 0 Z " fill="#6E78F6" transform="translate(73,48)"/>
<path d="M0 0 C0 0.33 0 0.66 0 1 C-1.216875 1.28875 -2.43375 1.5775 -3.6875 1.875 C-6.91814648 2.67835792 -9.94320935 3.66265409 -13 5 C-11.54545455 1.24242424 -11.54545455 1.24242424 -9.3125 0.25 C-6.19853938 -0.08664439 -3.12892809 -0.06017169 0 0 Z " fill="#9280D7" transform="translate(50,28)"/>
<path d="M0 0 C0.33 1.32 0.66 2.64 1 4 C4.465 3.505 4.465 3.505 8 3 C4.81237635 5.12508244 2.73487777 5.5020163 -1 6 C-0.67 4.02 -0.34 2.04 0 0 Z " fill="#807ACF" transform="translate(34,62)"/>
<path d="M0 0 C-0.8125 2.9375 -0.8125 2.9375 -2 6 C-2.99 6.33 -3.98 6.66 -5 7 C-4.625 4.0625 -4.625 4.0625 -4 1 C-2 0 -2 0 0 0 Z " fill="#B47DFC" transform="translate(14,8)"/>
<path d="M0 0 C-0.66 1.32 -1.32 2.64 -2 4 C-3.98 4 -5.96 4 -8 4 C-6 1 -6 1 -4 0.3125 C-2 0 -2 0 0 0 Z " fill="#B285ED" transform="translate(18,5)"/>
</svg>
