<?xml version="1.0" encoding="UTF-8"?>
<svg version="1.1" xmlns="http://www.w3.org/2000/svg" width="473" height="477">
<path d="M0 0 C1.08767282 -0.00594224 2.17534564 -0.01188449 3.29597825 -0.0180068 C6.93589082 -0.03533157 10.57567144 -0.03839314 14.21562195 -0.04138184 C16.82781249 -0.05064196 19.44000034 -0.06069179 22.05218506 -0.07147217 C29.14778734 -0.09858103 36.24336694 -0.11068046 43.33901238 -0.11949348 C47.77703021 -0.12503065 52.2150394 -0.13350781 56.65305138 -0.14250183 C68.96066521 -0.16688439 81.26827216 -0.18748047 93.57590961 -0.19425201 C94.75647839 -0.19491071 94.75647839 -0.19491071 95.96089704 -0.19558272 C96.74974813 -0.19601927 97.53859923 -0.19645583 98.3513549 -0.19690561 C99.94966527 -0.19779252 101.54797564 -0.19868565 103.14628601 -0.19958496 C104.335493 -0.20024925 104.335493 -0.20024925 105.54872438 -0.20092696 C118.37227961 -0.20880963 131.19560661 -0.24367802 144.01907382 -0.29030401 C157.21115612 -0.33787941 170.40312431 -0.36266259 183.5952937 -0.36498785 C190.99143387 -0.3668136 198.38727699 -0.37811957 205.78333473 -0.41462708 C212.08636474 -0.44563109 218.38900599 -0.45555314 224.69209788 -0.43915087 C227.90070683 -0.43140648 231.10838262 -0.43620363 234.31692505 -0.46126556 C253.51757266 -0.60234381 268.71651614 2.16784171 285.73002625 11.40588379 C287.03894836 12.10584473 287.03894836 12.10584473 288.37431335 12.81994629 C296.91319952 17.51340807 304.63772473 23.03940184 312.10502625 29.28088379 C312.6548114 29.73962891 313.20459656 30.19837402 313.77104187 30.67102051 C329.03685843 43.61154938 341.12148793 59.5610235 349.85502625 77.53088379 C350.19549988 78.2194043 350.53597351 78.9079248 350.88676453 79.61730957 C352.06139449 82.13889376 353.08377773 84.69262207 354.10502625 87.28088379 C354.34529309 87.87820427 354.58555993 88.47552474 354.83310759 89.09094584 C360.44117239 103.42827075 360.95879117 116.79429205 360.86552429 132.05114746 C360.87203189 134.58954109 360.88110311 137.12792923 360.89251709 139.66630554 C360.91306149 145.79810544 360.90599381 151.92931333 360.88501623 158.06109472 C360.86862456 163.05004894 360.86455875 168.03887878 360.86898232 173.02785683 C360.86961299 173.74225687 360.87024367 174.45665692 360.87089345 175.19270546 C360.87223971 176.64468464 360.8736193 178.09666379 360.87503181 179.54864291 C360.88692037 193.10928988 360.8630254 206.66968623 360.82601372 220.2302762 C360.79510797 231.83146241 360.7927652 243.43236098 360.81181335 255.03356934 C360.83399031 268.55564237 360.84001267 282.07755472 360.81949073 295.5996359 C360.81732812 297.04487659 360.81517902 298.49011731 360.81304359 299.93535805 C360.81197723 300.64617056 360.81091086 301.35698307 360.80981218 302.08933535 C360.80337926 307.06592121 360.8080679 312.04242348 360.8170681 317.01900291 C360.82878327 323.73099214 360.8133397 330.44241892 360.78032494 337.15435982 C360.77216627 339.60679164 360.77234401 342.05926871 360.78180313 344.51169586 C360.82828181 358.05660997 360.22545827 369.63037418 355.10502625 382.28088379 C354.70602962 383.34120914 354.30703299 384.40153448 353.89594555 385.4939909 C346.71083266 404.29955094 335.84126316 419.71443475 322.10502625 434.28088379 C321.17303406 435.29215332 321.17303406 435.29215332 320.22221375 436.32385254 C295.88586666 461.83119541 259.33612973 476.71890644 224.34007263 477.62542605 C219.63893141 477.68957618 214.93928996 477.68448797 210.23783875 477.66906738 C208.11810538 477.6731443 205.99837415 477.67849239 203.87864685 477.68499756 C198.18027674 477.69854386 192.48207162 477.69342552 186.78369904 477.6838603 C180.78419593 477.67619729 174.78470576 477.68332757 168.78520203 477.6880188 C158.71535235 477.69345718 148.64556895 477.68633531 138.57572937 477.67199707 C126.97917683 477.65567433 115.38278261 477.6609642 103.7862339 477.67747629 C93.78052745 477.69114604 83.77486829 477.69298411 73.7691555 477.68516028 C67.81470017 477.68051381 61.86031893 477.67977468 55.90586853 477.68976974 C50.30450888 477.69851753 44.7033508 477.69227675 39.10201263 477.67508698 C37.0620329 477.67116345 35.02203582 477.67218393 32.98206329 477.67887497 C-8.97937299 477.80368271 -46.26652672 463.67400459 -76.45747375 434.21838379 C-92.71064144 417.86007205 -102.94457182 398.70139346 -110.89497375 377.28088379 C-111.24447838 376.4457362 -111.593983 375.61058861 -111.95407867 374.75013351 C-113.25404429 369.95692602 -113.18428536 365.41367321 -113.17585754 360.46820068 C-113.18179979 359.37729873 -113.18774203 358.28639678 -113.19386435 357.1624372 C-113.21121224 353.50559924 -113.21425266 349.84889244 -113.21723938 346.1920166 C-113.22649794 343.57012147 -113.23654756 340.94822903 -113.24732971 338.32633972 C-113.27445747 331.19968747 -113.28654136 324.07305778 -113.29535103 316.9463625 C-113.30088577 312.48942148 -113.30936259 308.03248908 -113.31835938 303.57555389 C-113.34274589 291.21736827 -113.36334022 278.85918953 -113.37010956 266.50098038 C-113.37054869 265.71043179 -113.37098782 264.91988321 -113.37144026 264.10537861 C-113.37187682 263.31300447 -113.37231337 262.52063033 -113.37276316 261.70424485 C-113.37365007 260.09876903 -113.37454319 258.4932932 -113.3754425 256.88781738 C-113.37588536 256.09145661 -113.37632822 255.29509583 -113.3767845 254.47460291 C-113.38466568 241.59601903 -113.41952767 228.71766252 -113.46616155 215.83916631 C-113.51373656 202.59287511 -113.53852017 189.34669756 -113.54084539 176.10031962 C-113.54267132 168.67286596 -113.55398168 161.24570808 -113.59048462 153.81833649 C-113.62148826 147.48783436 -113.63141101 141.15771929 -113.61500841 134.82715556 C-113.6072635 131.60437814 -113.61206311 128.38252986 -113.63712311 125.15981865 C-113.89138515 90.3994066 -98.93764538 61.35023495 -74.70747375 36.65588379 C-58.61383874 20.74302197 -39.32677727 9.38346411 -17.89497375 2.28088379 C-16.91944959 1.94168663 -15.94392542 1.60248947 -14.93883991 1.25301361 C-10.00421105 -0.13765263 -5.09313578 -0.00873792 0 0 Z M49.10502625 155.28088379 C48.19237 156.10072754 47.27971375 156.92057129 46.33940125 157.76525879 C25.54195162 177.40083972 14.34152424 205.72751821 13.1401825 234.03869629 C12.78782444 250.09880568 16.57876648 266.58583686 23.2495575 281.12072754 C25.90550524 290.93196828 20.61623015 300.99532727 17.25541687 310.06799316 C14.48311899 317.93099533 11.84409497 326.59098726 15.07475281 334.72131348 C17.56654951 339.27513319 21.2877195 343.22890487 26.10502625 345.28088379 C34.06075082 347.35873185 40.98562636 344.74866278 48.66752625 342.46838379 C49.96856002 342.09394941 51.26999086 341.72089185 52.57182312 341.34924316 C54.9748851 340.65893603 57.37623683 339.96262435 59.77519226 339.25817871 C61.42346008 338.77441772 61.42346008 338.77441772 63.10502625 338.28088379 C64.32826599 337.91624023 65.55150574 337.55159668 66.81181335 337.17590332 C73.7240971 335.29730356 78.69468025 336.56521348 85.10502625 339.09338379 C107.26448514 347.21517642 131.42878287 348.26746308 154.10502625 341.28088379 C155.31932312 340.91865723 156.53362 340.55643066 157.78471375 340.18322754 C182.44793735 332.08116633 202.08956707 315.98049433 216.10502625 294.28088379 C216.92100281 293.1013916 216.92100281 293.1013916 217.75346375 291.89807129 C231.99206639 270.27648949 235.49247946 240.71786714 230.97367859 215.64880371 C225.28510217 188.36220494 210.51903112 163.12232947 187.10502625 147.28088379 C186.30838562 146.72916504 185.511745 146.17744629 184.69096375 145.60900879 C173.00804502 137.82039631 160.75092747 132.58392589 147.10502625 129.28088379 C145.83272156 128.95990723 145.83272156 128.95990723 144.53471375 128.63244629 C111.20193688 121.04181393 74.0600803 132.44322826 49.10502625 155.28088379 Z " fill="#837EFE" transform="translate(112.89497375488281,-0.2808837890625)"/>
<path d="M0 0 C0.61617187 0.48855469 1.23234375 0.97710937 1.8671875 1.48046875 C10.13444386 8.0391588 15.92771392 16.8607458 21 26 C21.35707031 26.6084375 21.71414063 27.216875 22.08203125 27.84375 C32.34734699 46.49308855 34.17516474 71.21563327 29.5 91.6875 C21.36466199 118.21209165 5.30306278 137.02674574 -18.67578125 150.50390625 C-42.38897337 162.26830483 -67.46282684 161.58447074 -92.06689453 153.68408203 C-94 153 -94 153 -95.85107422 152.17138672 C-107.3605515 147.12097708 -118.66238781 150.91336685 -130 154.5 C-132.08792043 155.1470768 -134.17716932 155.78931229 -136.26831055 156.42590332 C-138.14527672 156.99926018 -140.01809326 157.58615051 -141.890625 158.17382812 C-145 159 -145 159 -149 159 C-148.40623582 154.93773838 -147.51541326 151.21425973 -146.1875 147.33203125 C-145.83429688 146.27306641 -145.48109375 145.21410156 -145.1171875 144.12304688 C-144.37831035 141.93354204 -143.63360852 139.74599333 -142.8828125 137.56054688 C-139.65446025 127.82246975 -137.56166887 118.91284939 -141 109 C-141.34611328 107.96939453 -141.34611328 107.96939453 -141.69921875 106.91796875 C-142.4417341 104.76899575 -143.21490177 102.63375707 -144 100.5 C-152.16033388 78.32166684 -151.90383527 53.24251965 -142.05078125 31.62890625 C-131.01408707 8.78239164 -112.84419703 -8.07203581 -89 -17 C-58.61867529 -26.69033226 -24.05457958 -22.02644836 0 0 Z " fill="#857FFE" transform="translate(295,167)"/>
<path d="M0 0 C0.33 0 0.66 0 1 0 C0.26000141 22.9399562 -13.2121954 47.04396705 -28 64 C-28.77214844 64.8971875 -29.54429687 65.794375 -30.33984375 66.71875 C-32.51710951 69.19003968 -34.7404898 71.60392599 -37 74 C-37.62132812 74.67417969 -38.24265625 75.34835937 -38.8828125 76.04296875 C-62.11263671 100.39054601 -96.98451645 115.42384447 -130.421875 117.1796875 C-132.61539248 117.18588388 -134.80912171 117.10774811 -137 117 C-136.505 116.01 -136.505 116.01 -136 115 C-134.9275 115.04125 -133.855 115.0825 -132.75 115.125 C-129.11200778 115.00373359 -128.04461777 114.61745319 -125 113 C-121.45133435 112.33044044 -118.29720098 111.9831773 -114.6875 112.1875 C-109.05272041 111.90098578 -103.05749155 110.05749155 -99 106 C-96.67284 105.62599214 -94.33882138 105.29235267 -92 105 C-91.34 104.67 -90.68 104.34 -90 104 C-88.46331135 103.77532169 -86.92031946 103.59203195 -85.375 103.4375 C-84.55773437 103.35371094 -83.74046875 103.26992188 -82.8984375 103.18359375 C-82.27195312 103.12300781 -81.64546875 103.06242187 -81 103 C-81 102.34 -81 101.68 -81 101 C-80.02417969 100.51789063 -79.04835938 100.03578125 -78.04296875 99.5390625 C-76.75775951 98.90114842 -75.47260618 98.26312169 -74.1875 97.625 C-73.54490234 97.30789063 -72.90230469 96.99078125 -72.24023438 96.6640625 C-68.30277428 94.70553313 -64.83095974 92.68908856 -61.4375 89.875 C-59 88 -59 88 -57 88 C-55.61061923 86.03852126 -54.2739589 84.03833424 -53 82 C-51.02 82.495 -51.02 82.495 -49 83 C-49 82.34 -49 81.68 -49 81 C-48.34 81 -47.68 81 -47 81 C-47.495 77.04 -47.495 77.04 -48 73 C-44.94736336 72.01879536 -43.05263664 72.01879536 -40 73 C-40 71.35 -40 69.7 -40 68 C-36.63173525 66.20359213 -34.81739679 66 -31 66 C-30.67 63.03 -30.34 60.06 -30 57 C-28.02 56.67 -26.04 56.34 -24 56 C-24.020625 55.113125 -24.04125 54.22625 -24.0625 53.3125 C-24.00677235 50.35893453 -23.58988395 47.87568424 -23 45 C-22.9629721 43.3337447 -22.95240038 41.66598681 -23 40 C-21.68 40.66 -20.36 41.32 -19 42 C-18.01 41.34 -17.02 40.68 -16 40 C-16 39.34 -16 38.68 -16 38 C-15.67 37.67 -15.34 37.34 -15 37 C-14.67 36.01 -14.34 35.02 -14 34 C-12.5625 32.3125 -12.5625 32.3125 -11 31 C-10.34 31 -9.68 31 -9 31 C-8.11308154 27.07221823 -7.7051465 23.18871347 -7.37890625 19.18359375 C-7 17 -7 17 -5.90234375 14.84765625 C-5.60457031 14.23792969 -5.30679688 13.62820313 -5 13 C-5.33 12.34 -5.66 11.68 -6 11 C-5.34 11 -4.68 11 -4 11 C-4 10.34 -4 9.68 -4 9 C-3.34 9 -2.68 9 -2 9 C-2 7.68 -2 6.36 -2 5 C-1.34 5 -0.68 5 0 5 C0 3.35 0 1.7 0 0 Z " fill="#4F81EC" transform="translate(472,360)"/>
<path d="M0 0 C-0.33 0.598125 -0.66 1.19625 -1 1.8125 C-2.20787988 4.05386471 -2.20787988 4.05386471 -2 7 C-4.38564077 6.42415568 -6.66682784 5.77772405 -9 5 C-9.33 5.66 -9.66 6.32 -10 7 C-10.515625 6.79375 -11.03125 6.5875 -11.5625 6.375 C-15.07624074 5.8344245 -17.65589458 6.88529819 -21 8 C-21.94875 8.28875 -22.8975 8.5775 -23.875 8.875 C-26.19198972 9.80310082 -26.19198972 9.80310082 -26.8125 12.125 C-26.9053125 13.053125 -26.9053125 13.053125 -27 14 C-27.66 14 -28.32 14 -29 14 C-29.495 13.01 -29.495 13.01 -30 12 C-30.33 12.99 -30.66 13.98 -31 15 C-33.875 16.125 -33.875 16.125 -37 17 C-40.11785113 17.64644661 -40.11785113 17.64644661 -41 20 C-39.02 20.495 -39.02 20.495 -37 21 C-40.01031744 21.93423645 -40.86650268 22.04449911 -44 21 C-45.79385053 21.86670987 -45.79385053 21.86670987 -47.5 23.25 C-48.0878125 23.68828125 -48.675625 24.1265625 -49.28125 24.578125 C-51.01584971 25.96524807 -51.01584971 25.96524807 -52.51953125 27.53515625 C-54.75100315 29.74307699 -57.36993022 31.30506614 -60 33 C-59.01 33.495 -59.01 33.495 -58 34 C-58.33 35.65 -58.66 37.3 -59 39 C-59.66 38.01 -60.32 37.02 -61 36 C-64.36720387 37.39332574 -65.9859524 38.9789286 -68 42 C-67.34 42 -66.68 42 -66 42 C-66.33 43.65 -66.66 45.3 -67 47 C-67.33 46.01 -67.66 45.02 -68 44 C-69.65 44 -71.3 44 -73 44 C-73.33 45.98 -73.66 47.96 -74 50 C-74.99 50 -75.98 50 -77 50 C-77.2475 50.7425 -77.495 51.485 -77.75 52.25 C-79.09147301 55.20124062 -80.60905526 56.84814974 -83 59 C-82.67 59.99 -82.34 60.98 -82 62 C-84.16687491 64.27521866 -86.45620509 66.15794162 -89 68 C-88.505 68.99 -88.505 68.99 -88 70 C-89.65 71.32 -91.3 72.64 -93 74 C-92.34 74.99 -91.68 75.98 -91 77 C-93 79 -93 79 -96 81 C-96.97940674 83.30811616 -96.97940674 83.30811616 -97.625 85.9375 C-97.86476563 86.81277344 -98.10453125 87.68804687 -98.3515625 88.58984375 C-98.56554687 89.38519531 -98.77953125 90.18054688 -99 91 C-99.33 91.99 -99.66 92.98 -100 94 C-99.814375 94.680625 -99.62875 95.36125 -99.4375 96.0625 C-99.2209375 97.0215625 -99.2209375 97.0215625 -99 98 C-99.99 98.99 -99.99 98.99 -101 100 C-101.309375 100.680625 -101.61875 101.36125 -101.9375 102.0625 C-103 104 -103 104 -106 105 C-105.47091589 99.50239044 -104.44970143 94.66270397 -102.4375 89.5 C-102.04268433 88.47459106 -102.04268433 88.47459106 -101.63989258 87.4284668 C-87.86677742 52.53896831 -61.34432585 22.20587075 -26.65869141 6.97167969 C-5.08904338 -2.03561735 -5.08904338 -2.03561735 0 0 Z " fill="#B084F0" transform="translate(106,1)"/>
<path d="M0 0 C1.98 0.66 3.96 1.32 6 2 C5.67 2.99 5.34 3.98 5 5 C3.02 4.67 1.04 4.34 -1 4 C-1.33 4.66 -1.66 5.32 -2 6 C-1.505 6.495 -1.505 6.495 -1 7 C-2.375 9.5 -2.375 9.5 -4 12 C-4.66 12 -5.32 12 -6 12 C-6.33 12.66 -6.66 13.32 -7 14 C-7 13.34 -7 12.68 -7 12 C-7.66 12 -8.32 12 -9 12 C-9.33 12.66 -9.66 13.32 -10 14 C-10.99 14.28875 -11.98 14.5775 -13 14.875 C-13.99 15.24625 -14.98 15.6175 -16 16 C-16.96877057 18.03243548 -16.96877057 18.03243548 -17 20 C-17.66 20 -18.32 20 -19 20 C-19.33 20.66 -19.66 21.32 -20 22 C-20 21.34 -20 20.68 -20 20 C-26.43175777 22.18025687 -31.10367633 24.1555145 -35 30 C-37.86724686 29.42655063 -38.8614515 29.1385485 -41 27 C-41.33 27.66 -41.66 28.32 -42 29 C-44.97 29 -47.94 29 -51 29 C-51 29.66 -51 30.32 -51 31 C-51.78246094 31.06058594 -52.56492187 31.12117188 -53.37109375 31.18359375 C-54.88896484 31.30927734 -54.88896484 31.30927734 -56.4375 31.4375 C-57.44683594 31.51871094 -58.45617187 31.59992188 -59.49609375 31.68359375 C-61.93640779 31.73211468 -61.93640779 31.73211468 -63 33 C-64.85369611 33.08737645 -66.71067541 33.10698153 -68.56640625 33.09765625 C-69.69111328 33.09443359 -70.81582031 33.09121094 -71.97460938 33.08789062 C-73.15861328 33.07951172 -74.34261719 33.07113281 -75.5625 33.0625 C-76.75037109 33.05798828 -77.93824219 33.05347656 -79.16210938 33.04882812 C-82.10812226 33.03699675 -85.05403681 33.02051287 -88 33 C-88.33 33.99 -88.66 34.98 -89 36 C-90.485 36.495 -90.485 36.495 -92 37 C-91.67 35.35 -91.34 33.7 -91 32 C-92.65 31.67 -94.3 31.34 -96 31 C-96 30.67 -96 30.34 -96 30 C-95.09459473 30.02094727 -94.18918945 30.04189453 -93.25634766 30.06347656 C-68.82592196 30.7361172 -68.82592196 30.7361172 -45 26 C-43.19015625 25.45666016 -43.19015625 25.45666016 -41.34375 24.90234375 C-25.87282133 19.8537553 -11.54909674 11.54909674 0 0 Z " fill="#717EE8" transform="translate(312,314)"/>
<path d="M0 0 C4.33333333 0 8.66666667 0 13 0 C13.495 0.99 13.495 0.99 14 2 C13.01902344 2.3403125 12.03804688 2.680625 11.02734375 3.03125 C-17.84497903 13.29151315 -41.04529482 30.83849884 -54.44262695 58.96435547 C-55.44921773 61.14022775 -56.43187865 63.32516975 -57.40625 65.515625 C-59 69 -59 69 -61 72 C-61 71.34 -61 70.68 -61 70 C-61.66 70 -62.32 70 -63 70 C-63.66 68.68 -64.32 67.36 -65 66 C-64.01 65.01 -64.01 65.01 -63 64 C-62.01 64 -61.02 64 -60 64 C-57.81673892 59.72886302 -55.68673918 55.49797113 -54 51 C-53.34 51 -52.68 51 -52 51 C-52 50.01 -52 49.02 -52 48 C-51.34 48 -50.68 48 -50 48 C-49.505 45.03 -49.505 45.03 -49 42 C-48.01 42 -47.02 42 -46 42 C-45.855625 41.360625 -45.71125 40.72125 -45.5625 40.0625 C-45 38 -45 38 -44 37 C-44 36.01 -44 35.02 -44 34 C-41 32 -41 32 -38 32 C-38.226875 31.236875 -38.45375 30.47375 -38.6875 29.6875 C-39 27 -39 27 -38 25.4375 C-36.18804851 24.13515986 -34.38680791 23.07842713 -32.4375 22 C-28.94316249 19.9669309 -27.77383118 18.54766237 -26 15 C-24.6696875 15.0928125 -24.6696875 15.0928125 -23.3125 15.1875 C-19.5517485 14.97462727 -17.91688994 14.3497169 -15 12 C-13.65310085 9.42900598 -13.65310085 9.42900598 -13 7 C-11.7315625 7.37125 -11.7315625 7.37125 -10.4375 7.75 C-5.72603799 8.09265178 -3.8909301 6.56801386 0 4 C0 2.68 0 1.36 0 0 Z " fill="#9882EC" transform="translate(193,129)"/>
<path d="M0 0 C0 0.33 0 0.66 0 1 C-4.29 1 -8.58 1 -13 1 C-13.33 1.66 -13.66 2.32 -14 3 C-14.495 2.505 -14.495 2.505 -15 2 C-16.68608966 1.92794489 -18.37500659 1.91613932 -20.0625 1.9375 C-20.98160156 1.94652344 -21.90070313 1.95554688 -22.84765625 1.96484375 C-23.55792969 1.97644531 -24.26820313 1.98804688 -25 2 C-25.33 2.99 -25.66 3.98 -26 5 C-26.99 5.33 -27.98 5.66 -29 6 C-29 5.34 -29 4.68 -29 4 C-33.29 4.66 -37.58 5.32 -42 6 C-42.66 7.98 -43.32 9.96 -44 12 C-45.98 12 -47.96 12 -50 12 C-50 11.34 -50 10.68 -50 10 C-51.65260442 10.56386503 -53.29701637 11.15178717 -54.9375 11.75 C-55.85402344 12.07484375 -56.77054688 12.3996875 -57.71484375 12.734375 C-60.17115746 13.75630012 -60.17115746 13.75630012 -60.65625 16 C-60.7696875 16.66 -60.883125 17.32 -61 18 C-63.5625 20.25 -63.5625 20.25 -66 22 C-66 21.34 -66 20.68 -66 20 C-67.65 20 -69.3 20 -71 20 C-59.15087592 6.99203738 -37.19199644 0.32846223 -20.15625 -0.94921875 C-13.42413422 -1.05753249 -6.70899066 -0.5112361 0 0 Z " fill="#9583EB" transform="translate(250,146)"/>
<path d="M0 0 C0.33 0.66 0.66 1.32 1 2 C0.22265625 4.05859375 0.22265625 4.05859375 -0.9375 6.4375 C-2.3388088 9.32087099 -3 10.74651698 -3 14 C-4.98 14.33 -6.96 14.66 -9 15 C-9.185625 16.258125 -9.37125 17.51625 -9.5625 18.8125 C-9.66691406 19.52019531 -9.77132812 20.22789062 -9.87890625 20.95703125 C-10.13904799 23.2025342 -10.13904799 23.2025342 -9 26 C-9.33 26.99 -9.66 27.98 -10 29 C-10.78375 29.20625 -11.5675 29.4125 -12.375 29.625 C-15.13742268 30.72520279 -15.13742268 30.72520279 -15.92578125 33.08984375 C-16.42716832 34.7174233 -16.89443713 36.35597059 -17.32421875 38.00390625 C-18 40 -18 40 -20 41 C-19.11256019 25.61770999 -9.7394175 11.39561286 0 0 Z " fill="#9480F2" transform="translate(168,176)"/>
<path d="M0 0 C2.25 0.125 2.25 0.125 5 1 C5.556875 1.969375 6.11375 2.93875 6.6875 3.9375 C9.3298378 7.43681222 9.94704104 7.49562574 14.0625 8.1875 C14.91972656 8.28417969 15.77695313 8.38085938 16.66015625 8.48046875 C19.33675259 9.07477144 20.28454784 9.91333524 22 12 C16.06584758 11.47444166 11.25929468 10.12949326 5.75 7.9375 C-4.01060176 4.28181192 -12.03466515 3.88583286 -22 7 C-24.4375 6.625 -24.4375 6.625 -26 6 C-20.40961757 3.20105685 -15.77365863 2.48767369 -9.5625 2.3125 C-8.73556641 2.27833984 -7.90863281 2.24417969 -7.05664062 2.20898438 C-5.03821056 2.12731379 -3.01913116 2.06196276 -1 2 C-0.67 1.34 -0.34 0.68 0 0 Z " fill="#8382EA" transform="translate(196,312)"/>
<path d="M0 0 C-0.99 0 -1.98 0 -3 0 C-3 0.66 -3 1.32 -3 2 C-3.78246094 2.06058594 -4.56492187 2.12117188 -5.37109375 2.18359375 C-6.88896484 2.30927734 -6.88896484 2.30927734 -8.4375 2.4375 C-9.44683594 2.51871094 -10.45617187 2.59992188 -11.49609375 2.68359375 C-13.93640779 2.73211468 -13.93640779 2.73211468 -15 4 C-16.85369611 4.08737645 -18.71067541 4.10698153 -20.56640625 4.09765625 C-21.69111328 4.09443359 -22.81582031 4.09121094 -23.97460938 4.08789062 C-25.15861328 4.07951172 -26.34261719 4.07113281 -27.5625 4.0625 C-28.75037109 4.05798828 -29.93824219 4.05347656 -31.16210938 4.04882812 C-34.10812226 4.03699675 -37.05403681 4.02051287 -40 4 C-40.33 4.99 -40.66 5.98 -41 7 C-41.99 7.33 -42.98 7.66 -44 8 C-43.67 6.35 -43.34 4.7 -43 3 C-44.65 2.67 -46.3 2.34 -48 2 C-48 1.67 -48 1.34 -48 1 C-47.05793701 1.01047363 -46.11587402 1.02094727 -45.14526367 1.03173828 C-41.59852577 1.0661367 -38.05196909 1.09105113 -34.50512695 1.10986328 C-32.97970759 1.11982599 -31.45430684 1.13340109 -29.92895508 1.15087891 C-21.85667914 1.24095353 -14.1015556 1.22811782 -6.19262695 -0.66455078 C-3.81265668 -1.02866159 -2.27050849 -0.74201321 0 0 Z " fill="#7980E2" transform="translate(264,343)"/>
<path d="M0 0 C0.66 0 1.32 0 2 0 C1.87882813 0.72960937 1.75765625 1.45921875 1.6328125 2.2109375 C-0.59687584 16.10361102 -2.44831399 29.9030155 -2 44 C-4.63991268 41.36008732 -4.30240797 40.02053704 -4.4140625 36.3359375 C-4.45273438 35.21445313 -4.49140625 34.09296875 -4.53125 32.9375 C-4.5621875 31.761875 -4.593125 30.58625 -4.625 29.375 C-4.66367188 28.19164062 -4.70234375 27.00828125 -4.7421875 25.7890625 C-4.83668845 22.85953309 -4.92224558 19.93001403 -5 17 C-6.98 17.99 -6.98 17.99 -9 19 C-8 16 -8 16 -5.9375 14.8125 C-4.9784375 14.4103125 -4.9784375 14.4103125 -4 14 C-3.67 14.33 -3.34 14.66 -3 15 C-2.01 10.05 -1.02 5.1 0 0 Z " fill="#9280E3" transform="translate(129,204)"/>
<path d="M0 0 C0.66 0.33 1.32 0.66 2 1 C2 6.28 2 11.56 2 17 C3.32 17 4.64 17 6 17 C6 17.66 6 18.32 6 19 C5.01 19 4.02 19 3 19 C3 20.65 3 22.3 3 24 C2.34 24.33 1.68 24.66 1 25 C0.5316735 27.58605332 0.5316735 27.58605332 0.375 30.5625 C0.30023438 31.57441406 0.22546875 32.58632813 0.1484375 33.62890625 C0.09945313 34.41136719 0.05046875 35.19382812 0 36 C-0.66 36 -1.32 36 -2 36 C-1.01 18.18 -1.01 18.18 0 0 Z " fill="#7580E3" transform="translate(345,224)"/>
<path d="M0 0 C7.36068933 0.68309427 13.77569517 2.46939802 20.5 5.4375 C21.18191406 5.73793213 21.86382812 6.03836426 22.56640625 6.34790039 C26.00790955 7.92112239 29.08932462 9.57196212 32 12 C30.3745692 11.85904936 28.74965949 11.71207913 27.125 11.5625 C26.22007812 11.48128906 25.31515625 11.40007812 24.3828125 11.31640625 C22 11 22 11 20 10 C19.67 9.01 19.34 8.02 19 7 C15.48070391 5.08038395 12.02079806 4.69822983 8.0703125 4.28515625 C4.93023048 3.85265439 2.02217242 2.94442888 -1 2 C-0.67 1.34 -0.34 0.68 0 0 Z " fill="#8D83E6" transform="translate(251,147)"/>
<path d="M0 0 C0.66 0 1.32 0 2 0 C2.33 0.99 2.66 1.98 3 3 C3.99 3.66 4.98 4.32 6 5 C4.69546875 4.9278125 3.3909375 4.855625 2.046875 4.78125 C-7.31177017 4.27893466 -16.62520768 3.8285099 -26 4 C-26.33 3.34 -26.66 2.68 -27 2 C-26.21761963 1.97494385 -25.43523926 1.9498877 -24.62915039 1.92407227 C-21.10675051 1.80850212 -17.5846444 1.68560051 -14.0625 1.5625 C-12.83080078 1.52318359 -11.59910156 1.48386719 -10.33007812 1.44335938 C-8.5753418 1.38051758 -8.5753418 1.38051758 -6.78515625 1.31640625 C-5.70113525 1.27974854 -4.61711426 1.24309082 -3.50024414 1.20532227 C-1.060737 1.27635735 -1.060737 1.27635735 0 0 Z " fill="#9688E9" transform="translate(249,123)"/>
<path d="M0 0 C1.32 0.66 2.64 1.32 4 2 C2.28192374 5.92841032 -0.27308689 9.19063301 -2.875 12.5625 C-3.30941406 13.13935547 -3.74382812 13.71621094 -4.19140625 14.31054688 C-6.5342013 17.36040169 -8.77053777 19.88958398 -12 22 C-12 19 -12 19 -10 17 C-9.01 16.67 -8.02 16.34 -7 16 C-6.67 13.03 -6.34 10.06 -6 7 C-4.02 6.67 -2.04 6.34 0 6 C0 4.02 0 2.04 0 0 Z " fill="#5183EA" transform="translate(448,410)"/>
<path d="M0 0 C0.33 0.66 0.66 1.32 1 2 C7.73523267 4.85873209 15.2740125 5.9288158 22.4140625 7.3046875 C26.63029068 8.12221323 30.81309563 9.04509199 35 10 C35 10.33 35 10.66 35 11 C22.43829711 10.75192328 9.55733403 8.00973148 -2 3 C-2 2.34 -2 1.68 -2 1 C-1.34 0.67 -0.68 0.34 0 0 Z " fill="#7F85DF" transform="translate(91,465)"/>
<path d="M0 0 C0.33 1.32 0.66 2.64 1 4 C0.34 4 -0.32 4 -1 4 C-0.67 4.99 -0.34 5.98 0 7 C-0.66 7 -1.32 7 -2 7 C-2.10828125 7.57878906 -2.2165625 8.15757812 -2.328125 8.75390625 C-4.09730591 14.66831918 -9.51092013 19.98345485 -14 24 C-15.31863776 24.69528173 -16.65001636 25.36772918 -18 26 C-17.64808594 25.53851563 -17.29617188 25.07703125 -16.93359375 24.6015625 C-10.90769025 16.64044717 -5.20733483 8.52109335 0 0 Z " fill="#6E7EE6" transform="translate(333,286)"/>
<path d="M0 0 C0.33 0 0.66 0 1 0 C1.02505615 0.79172607 1.0501123 1.58345215 1.07592773 2.39916992 C1.19215729 5.99543363 1.31476176 9.5914528 1.4375 13.1875 C1.47681641 14.43337891 1.51613281 15.67925781 1.55664062 16.96289062 C1.59853516 18.16494141 1.64042969 19.36699219 1.68359375 20.60546875 C1.72025146 21.71043701 1.75690918 22.81540527 1.79467773 23.95385742 C1.98305094 26.74854534 2.24513961 29.30241703 3 32 C3.66 32.33 4.32 32.66 5 33 C4.67 33.66 4.34 34.32 4 35 C4.33 35.66 4.66 36.32 5 37 C5.04022391 39.3329866 5.04320247 41.66706666 5 44 C-0.90903916 35.13644126 -0.38827418 23.99463128 -0.1875 13.75 C-0.17240372 12.40756735 -0.15872418 11.06511799 -0.14648438 9.72265625 C-0.11150604 6.48133056 -0.06242337 3.24089338 0 0 Z " fill="#9286E3" transform="translate(146,222)"/>
<path d="M0 0 C0.33 0 0.66 0 1 0 C2.44231303 6.20662185 2.18423854 12.40972964 2.1875 18.75 C2.19974609 19.9875 2.21199219 21.225 2.22460938 22.5 C2.23551196 29.33228587 1.80609807 35.40381573 0 42 C-0.33 42 -0.66 42 -1 42 C-1 39.03 -1 36.06 -1 33 C-1.66 32.67 -2.32 32.34 -3 32 C-2.01 31.67 -1.02 31.34 0 31 C0.33 23.08 0.66 15.16 1 7 C0.34 7 -0.32 7 -1 7 C-1.04254356 5.00045254 -1.04080783 2.99958364 -1 1 C-0.67 0.67 -0.34 0.34 0 0 Z " fill="#7C80DF" transform="translate(324,217)"/>
<path d="M0 0 C0.33 0.99 0.66 1.98 1 3 C-1.26504965 4.19984797 -3.53589888 5.38494769 -5.8125 6.5625 C-6.45509766 6.90474609 -7.09769531 7.24699219 -7.75976562 7.59960938 C-9.46926395 8.4765023 -11.23321294 9.24515617 -13 10 C-13.99 9.67 -14.98 9.34 -16 9 C-15.34 9 -14.68 9 -14 9 C-14 8.01 -14 7.02 -14 6 C-10.3357538 3.22405591 -6.45266347 2.00815022 -2 1 C-1.34 1.33 -0.68 1.66 0 2 C0 1.34 0 0.68 0 0 Z " fill="#7781EB" transform="translate(281,311)"/>
<path d="M0 0 C1.32 0.66 2.64 1.32 4 2 C1.06605189 4.47212294 -1.23792842 5.53887671 -5 6.25 C-5.845625 6.42015625 -6.69125 6.5903125 -7.5625 6.765625 C-10.01432071 7.00137699 -11.67413687 6.75375194 -14 6 C-13.38125 5.71125 -12.7625 5.4225 -12.125 5.125 C-9.86674235 4.06279958 -9.86674235 4.06279958 -8 2 C-5.67182036 1.63239269 -3.3381615 1.29758419 -1 1 C-0.67 0.67 -0.34 0.34 0 0 Z " fill="#5184ED" transform="translate(381,464)"/>
<path d="M0 0 C1.45903258 0.30921884 2.91720722 0.62248799 4.375 0.9375 C5.18710937 1.11152344 5.99921875 1.28554687 6.8359375 1.46484375 C9 2 9 2 11 3 C11.33 2.34 11.66 1.68 12 1 C12.66 1.33 13.32 1.66 14 2 C14 5 14 8 14 11 C13.49210937 10.61328125 12.98421875 10.2265625 12.4609375 9.828125 C9.19408332 7.3565724 5.93836498 4.91667921 2.5 2.6875 C1.675 2.130625 0.85 1.57375 0 1 C0 0.67 0 0.34 0 0 Z " fill="#8880EF" transform="translate(297,145)"/>
<path d="M0 0 C2.9012263 2.9012263 2.98369092 6.05921152 3 10 C2.50546144 12.91984644 1.64924287 15.64088726 0.6875 18.4375 C0.46126953 19.15615234 0.23503906 19.87480469 0.00195312 20.61523438 C-0.5943221 22.43499076 -1.28988671 24.22157469 -2 26 C-2.66 26.33 -3.32 26.66 -4 27 C-4.28571429 19.57142857 -4.28571429 19.57142857 -2 16 C-1.34 16 -0.68 16 0 16 C-0.020625 14.906875 -0.04125 13.81375 -0.0625 12.6875 C0 9 0 9 1 6 C0.67 5.67 0.34 5.34 0 5 C-0.04063832 3.33382885 -0.042721 1.66611905 0 0 Z " fill="#8D81E2" transform="translate(135,279)"/>
<path d="M0 0 C-0.66 1.98 -1.32 3.96 -2 6 C-5.51716303 6 -6.37121748 5.17554415 -9 3 C-9.33 3.66 -9.66 4.32 -10 5 C-11.98 5 -13.96 5 -16 5 C-16 4.34 -16 3.68 -16 3 C-5.62642369 -0.44419134 -5.62642369 -0.44419134 0 0 Z " fill="#6F7BF1" transform="translate(280,338)"/>
<path d="M0 0 C3.25476829 3.25476829 4.18690681 7.58673168 5.6875 11.875 C6.02072266 12.78636719 6.35394531 13.69773437 6.69726562 14.63671875 C7.00728516 15.51714844 7.31730469 16.39757812 7.63671875 17.3046875 C8.06537231 18.5110083 8.06537231 18.5110083 8.50268555 19.74169922 C9.04796426 22.21780531 8.81395426 23.62639122 8 26 C7.34 25.67 6.68 25.34 6 25 C5.76637349 23.0642375 5.53776332 21.12763315 5.34375 19.1875 C4.82133053 15.86301245 3.4067755 13.03863508 2 10 C0.61231195 6.27515312 0 4.02141462 0 0 Z " fill="#7A7DDF" transform="translate(463,80)"/>
<path d="M0 0 C0.268125 0.639375 0.53625 1.27875 0.8125 1.9375 C1.88667752 4.33131686 1.88667752 4.33131686 5 5 C5.70118385 6.90321332 6.39479943 8.80984314 7.03515625 10.734375 C8.43650217 14.02498485 10.58464703 16.53150235 12.890625 19.23828125 C13.25671875 19.81964844 13.6228125 20.40101563 14 21 C13.67 21.99 13.34 22.98 13 24 C-0 6.26923077 -0 6.26923077 0 0 Z " fill="#948AE3" transform="translate(9,392)"/>
<path d="M0 0 C2.77153305 1.38576653 3.48074938 3.34131141 5 6 C5.99 7.485 5.99 7.485 7 9 C7.04320247 11.33293334 7.04022391 13.6670134 7 16 C7.20625 16.9075 7.4125 17.815 7.625 18.75 C8 21 8 21 6 24 C5.90203125 23.24976563 5.8040625 22.49953125 5.703125 21.7265625 C4.77621075 15.3819943 3.40578784 9.82765286 0.8046875 3.9609375 C0 2 0 2 0 0 Z " fill="#8D82E7" transform="translate(151,266)"/>
<path d="M0 0 C0.88751953 0.34224609 0.88751953 0.34224609 1.79296875 0.69140625 C7.78652961 2.9576998 7.78652961 2.9576998 14 2 C14.33 2.99 14.66 3.98 15 5 C14.67 5.33 14.34 5.66 14 6 C14.99 6.33 15.98 6.66 17 7 C17.33 7.99 17.66 8.98 18 10 C13.48548686 8.6510689 9.67722719 6.83381706 5.625 4.4375 C4.56539063 3.81746094 3.50578125 3.19742187 2.4140625 2.55859375 C1.61742188 2.04425781 0.82078125 1.52992188 0 1 C0 0.67 0 0.34 0 0 Z " fill="#8283E8" transform="translate(63,454)"/>
<path d="M0 0 C4.57729638 4.57729638 5.58784521 9.89136073 7 16 C4.03 15.505 4.03 15.505 1 15 C1 11.66666667 1 8.33333333 1 5 C0.68911632 3.32900023 0.35919668 1.66128463 0 0 Z " fill="#8080E7" transform="translate(315,193)"/>
<path d="M0 0 C6.41991126 0.57065878 12.01589463 2.67344909 18 5 C18 5.66 18 6.32 18 7 C16.35 7 14.7 7 13 7 C12.67 6.34 12.34 5.68 12 5 C9.67843403 4.59270772 7.3431213 4.25561323 5 4 C5 3.34 5 2.68 5 2 C3.35 2.33 1.7 2.66 0 3 C0 2.01 0 1.02 0 0 Z " fill="#9080EA" transform="translate(369,1)"/>
<path d="M0 0 C1.32 0 2.64 0 4 0 C4 0.66 4 1.32 4 2 C4.99 2.33 5.98 2.66 7 3 C8 6 8 6 8 8 C8.31478446 9.33783393 8.64587656 10.67203709 9 12 C5.74483572 8.83525695 2.67991207 5.67247209 0 2 C0 1.34 0 0.68 0 0 Z " fill="#9188EE" transform="translate(23,416)"/>
<path d="M0 0 C0.66 0.33 1.32 0.66 2 1 C0.75796305 2.46512126 -0.49397056 3.92185645 -1.75 5.375 C-2.44609375 6.18710937 -3.1421875 6.99921875 -3.859375 7.8359375 C-5.85949643 9.85795807 -7.39531129 10.93231229 -10 12 C-8.375 5.25 -8.375 5.25 -5 3 C-3.68 3 -2.36 3 -1 3 C-0.67 2.01 -0.34 1.02 0 0 Z " fill="#7980EB" transform="translate(304,293)"/>
<path d="M0 0 C0.33 0.66 0.66 1.32 1 2 C0.37915039 3.69580078 0.37915039 3.69580078 -0.65234375 5.6953125 C-1.01650391 6.41074219 -1.38066406 7.12617188 -1.75585938 7.86328125 C-2.14580078 8.60964844 -2.53574219 9.35601562 -2.9375 10.125 C-3.32357422 10.87910156 -3.70964844 11.63320313 -4.10742188 12.41015625 C-5.06452132 14.27709097 -6.03136106 16.13902628 -7 18 C-8.125 14.25 -8.125 14.25 -7 12 C-6.34 12 -5.68 12 -5 12 C-4.97421875 11.38511719 -4.9484375 10.77023437 -4.921875 10.13671875 C-4.45283019 3.45283019 -4.45283019 3.45283019 -1.9375 0.9375 C-1.298125 0.628125 -0.65875 0.31875 0 0 Z " fill="#7981E6" transform="translate(320,266)"/>
<path d="M0 0 C0.66 0.33 1.32 0.66 2 1 C-0.58090767 2.31746333 -3.16450458 3.62909617 -5.75 4.9375 C-6.47960937 5.31068359 -7.20921875 5.68386719 -7.9609375 6.06835938 C-8.66992188 6.42607422 -9.37890625 6.78378906 -10.109375 7.15234375 C-11.08342285 7.6472229 -11.08342285 7.6472229 -12.07714844 8.15209961 C-14.03293079 9.01452116 -15.91540694 9.54374179 -18 10 C-16.1875 8 -16.1875 8 -14 6 C-13.01 6 -12.02 6 -11 6 C-11 5.34 -11 4.68 -11 4 C-9.39125 3.566875 -9.39125 3.566875 -7.75 3.125 C-4.16546862 2.17357654 -4.16546862 2.17357654 -1.6875 0.8125 C-1.130625 0.544375 -0.57375 0.27625 0 0 Z " fill="#5F87DF" transform="translate(402,457)"/>
<path d="M0 0 C4 3 4 3 4.609375 5.04296875 C4.73958333 7.02864583 4.86979167 9.01432292 5 11 C4.01 11.33 3.02 11.66 2 12 C1.34 11.67 0.68 11.34 0 11 C0 7.37 0 3.74 0 0 Z " fill="#4483FA" transform="translate(449,400)"/>
<path d="M0 0 C0.33 0 0.66 0 1 0 C1 2.64 1 5.28 1 8 C1.66 8.33 2.32 8.66 3 9 C2.04867187 9.35191406 2.04867187 9.35191406 1.078125 9.7109375 C-1.18250739 10.82290908 -1.18250739 10.82290908 -1.828125 13.1640625 C-1.96734375 13.97617187 -2.1065625 14.78828125 -2.25 15.625 C-2.39953125 16.44226563 -2.5490625 17.25953125 -2.703125 18.1015625 C-2.85007813 19.04128906 -2.85007813 19.04128906 -3 20 C-3.66 20 -4.32 20 -5 20 C-3.33333333 13.33333333 -1.66666667 6.66666667 0 0 Z " fill="#8982E2" transform="translate(156,290)"/>
<path d="M0 0 C0 0.33 0 0.66 0 1 C-4.29 1 -8.58 1 -13 1 C-13.33 1.66 -13.66 2.32 -14 3 C-14.33 2.67 -14.66 2.34 -15 2 C-17.18292774 1.76518307 -19.37203174 1.58636677 -21.5625 1.4375 C-23.35880859 1.31181641 -23.35880859 1.31181641 -25.19140625 1.18359375 C-26.11824219 1.12300781 -27.04507813 1.06242188 -28 1 C-28 0.67 -28 0.34 -28 0 C-18.57130123 -1.32368341 -9.44343382 -0.71960516 0 0 Z " fill="#9185DF" transform="translate(250,146)"/>
<path d="M0 0 C-2.5395837 0.67561372 -5.08118835 1.34065828 -7.625 2 C-8.33785156 2.19078125 -9.05070312 2.3815625 -9.78515625 2.578125 C-13.95848544 3.65017287 -17.65178751 4.21946814 -22 4 C-19.16397759 1.16397759 -15.93513292 0.99697521 -12.125 0.3125 C-11.40441406 0.17005859 -10.68382812 0.02761719 -9.94140625 -0.11914062 C-3.4063722 -1.3286635 -3.4063722 -1.3286635 0 0 Z " fill="#5A85DC" transform="translate(375,471)"/>
<path d="M0 0 C1.2065625 0.0309375 1.2065625 0.0309375 2.4375 0.0625 C1.0625 2.5625 1.0625 2.5625 -0.5625 5.0625 C-1.2225 5.0625 -1.8825 5.0625 -2.5625 5.0625 C-2.8925 5.7225 -3.2225 6.3825 -3.5625 7.0625 C-3.5625 6.4025 -3.5625 5.7425 -3.5625 5.0625 C-4.2225 5.0625 -4.8825 5.0625 -5.5625 5.0625 C-5.8925 5.7225 -6.2225 6.3825 -6.5625 7.0625 C-6.8925 5.4125 -7.2225 3.7625 -7.5625 2.0625 C-6.923125 1.918125 -6.28375 1.77375 -5.625 1.625 C-2.92258807 0.88797856 -2.9576555 0.07213794 0 0 Z " fill="#6B7CFA" transform="translate(308.5625,320.9375)"/>
<path d="M0 0 C2 2 2 2 2 4 C2.99 4.66 3.98 5.32 5 6 C5 6.66 5 7.32 5 8 C0.69235185 6.43358249 -3.06171464 4.31663844 -7 2 C-7 1.67 -7 1.34 -7 1 C-3.625 0.375 -3.625 0.375 0 0 Z " fill="#8C81EB" transform="translate(291,136)"/>
<path d="M0 0 C1.45148641 2.7767566 2.61908683 5.53306419 3.625 8.5 C3.88539063 9.2528125 4.14578125 10.005625 4.4140625 10.78125 C5 13 5 13 5 17 C3.68 16.67 2.36 16.34 1 16 C1.020625 14.845 1.04125 13.69 1.0625 12.5 C1.07007769 8.25649453 0.59974765 4.19823356 0 0 Z " fill="#8D7FE4" transform="translate(129,261)"/>
<path d="M0 0 C4.10958767 1.45044271 7.43258745 3.51110752 11 6 C7.93109813 7.53445094 5.29905734 6.54984289 2 6 C2 5.34 2 4.68 2 4 C1.01 3.67 0.02 3.34 -1 3 C-0.67 2.01 -0.34 1.02 0 0 Z " fill="#8B7FE9" transform="translate(405,16)"/>
<path d="M0 0 C0.85271484 0.19916016 0.85271484 0.19916016 1.72265625 0.40234375 C5.456543 1.25633788 9.06140071 2.00693234 12.875 2.4375 C16.06594462 3.01187003 17.10866719 3.44113796 19 6 C12.16018724 5.48378772 6.36123316 3.51409031 0 1 C0 0.67 0 0.34 0 0 Z " fill="#8485E1" transform="translate(199,318)"/>
<path d="M0 0 C2 3 2 3 3 6 C2.67 6.99 2.34 7.98 2 9 C0.35 9.66 -1.3 10.32 -3 11 C-2.01 7.37 -1.02 3.74 0 0 Z " fill="#7080FB" transform="translate(341,270)"/>
<path d="M0 0 C1.32 0.33 2.64 0.66 4 1 C1.03 3.97 -1.94 6.94 -5 10 C-5.33 8.68 -5.66 7.36 -6 6 C-5.01 6 -4.02 6 -3 6 C-2.87625 5.38125 -2.7525 4.7625 -2.625 4.125 C-2 2 -2 2 0 0 Z " fill="#9682E2" transform="translate(158,155)"/>
<path d="M0 0 C0.66 0.33 1.32 0.66 2 1 C-1.3 3.97 -4.6 6.94 -8 10 C-8.66 9.34 -9.32 8.68 -10 8 C-10 7.01 -10 6.02 -10 5 C-8.68 5.33 -7.36 5.66 -6 6 C-6 5.34 -6 4.68 -6 4 C-4.36368108 2.95107762 -2.69514137 1.95093297 -1 1 C-0.67 0.67 -0.34 0.34 0 0 Z " fill="#5886E8" transform="translate(429,437)"/>
<path d="M0 0 C0.66 1.32 1.32 2.64 2 4 C1.34 4.66 0.68 5.32 0 6 C-0.309375 6.680625 -0.61875 7.36125 -0.9375 8.0625 C-2 10 -2 10 -5 11 C-5 9.68 -5 8.36 -5 7 C-4.01 7 -3.02 7 -2 7 C-2 5.02 -2 3.04 -2 1 C-1.34 0.67 -0.68 0.34 0 0 Z " fill="#B17EF9" transform="translate(5,95)"/>
<path d="M0 0 C3.63 0 7.26 0 11 0 C10.67 0.99 10.34 1.98 10 3 C6.4375 4.1875 6.4375 4.1875 3 5 C2.87625 4.360625 2.7525 3.72125 2.625 3.0625 C2.315625 2.0415625 2.315625 2.0415625 2 1 C1.34 0.67 0.68 0.34 0 0 Z " fill="#827FEA" transform="translate(140,345)"/>
<path d="M0 0 C0.33 0.66 0.66 1.32 1 2 C0.67 2.66 0.34 3.32 0 4 C-2.28515625 4.6328125 -2.28515625 4.6328125 -5.0625 5.125 C-5.98160156 5.29257813 -6.90070313 5.46015625 -7.84765625 5.6328125 C-8.91306641 5.81457031 -8.91306641 5.81457031 -10 6 C-10 5.34 -10 4.68 -10 4 C-6.7 2.68 -3.4 1.36 0 0 Z " fill="#B690EB" transform="translate(92,3)"/>
<path d="M0 0 C2 3 2 3 2 5 C1.34 5 0.68 5 0 5 C-0.33 7.31 -0.66 9.62 -1 12 C-0.34 12.33 0.32 12.66 1 13 C-0.32 13 -1.64 13 -3 13 C-2.343621 8.51474352 -1.29925791 4.33085971 0 0 Z " fill="#867FE1" transform="translate(149,313)"/>
<path d="M0 0 C0.66 0 1.32 0 2 0 C2.33 0.99 2.66 1.98 3 3 C0.63379989 5.61527381 -1.942048 7.26440562 -5 9 C-3.50079488 5.88626628 -1.91847864 2.87771795 0 0 Z " fill="#B87EFB" transform="translate(21,60)"/>
<path d="M0 0 C-1 1.9375 -1 1.9375 -3 4 C-5.69924572 4.66549451 -8.20631637 4.81680763 -11 5 C-4.36842105 -2.18421053 -4.36842105 -2.18421053 0 0 Z " fill="#4980F9" transform="translate(378,466)"/>
<path d="M0 0 C-3.2811302 2.18742014 -5.33084356 2.54442806 -9.1875 3.125 C-10.27417969 3.29257812 -11.36085937 3.46015625 -12.48046875 3.6328125 C-13.31191406 3.75398438 -14.14335937 3.87515625 -15 4 C-15 3.34 -15 2.68 -15 2 C-9.75614911 0.2520497 -5.52677733 -0.19392201 0 0 Z " fill="#7F87E3" transform="translate(265,321)"/>
<path d="M0 0 C2.31 0 4.62 0 7 0 C6.67 0.99 6.34 1.98 6 3 C7.37168238 5.19038423 7.37168238 5.19038423 9 7 C8.67 7.66 8.34 8.32 8 9 C6.66368764 7.6905332 5.33102075 6.37734515 4 5.0625 C3.2575 4.33160156 2.515 3.60070312 1.75 2.84765625 C0 1 0 1 0 0 Z " fill="#8682E0" transform="translate(311,156)"/>
<path d="M0 0 C3.26008643 3.16952847 6.22237877 6.39937989 9 10 C8.67 10.66 8.34 11.32 8 12 C2.91558124 8.35248219 1.20555041 6.14830711 0 0 Z " fill="#837EDC" transform="translate(442,47)"/>
<path d="M0 0 C4.05281712 1.22527029 7.44360764 2.69880494 11 5 C8.36749612 6.31625194 7.19820944 5.74813658 4.375 5.0625 C3.55773437 4.86785156 2.74046875 4.67320313 1.8984375 4.47265625 C0.95871094 4.23869141 0.95871094 4.23869141 0 4 C0 2.68 0 1.36 0 0 Z " fill="#8D81E4" transform="translate(394,10)"/>
<path d="M0 0 C1.03719328 3.21456356 0.94068337 5.40925583 0.1875 8.6875 C0.01605469 9.47511719 -0.15539062 10.26273438 -0.33203125 11.07421875 C-1 13 -1 13 -3 14 C-2.48594831 9.03083364 -1.76615118 4.70973649 0 0 Z " fill="#9485E0" transform="translate(151,203)"/>
<path d="M0 0 C3.5786304 1.65167557 6.74820188 3.78286492 10 6 C9.01 6.495 9.01 6.495 8 7 C4.4375 5.8125 4.4375 5.8125 1 4 C0.0625 1.8125 0.0625 1.8125 0 0 Z " fill="#8781DD" transform="translate(283,159)"/>
<path d="M0 0 C1.58409994 0.11487748 3.16728963 0.24234508 4.75 0.375 C6.07257813 0.47941406 6.07257813 0.47941406 7.421875 0.5859375 C9.99066382 0.99850055 11.75841015 1.71160957 14 3 C14 3.66 14 4.32 14 5 C12.22739369 4.54857225 10.4569632 4.08859477 8.6875 3.625 C7.20830078 3.24214844 7.20830078 3.24214844 5.69921875 2.8515625 C3 2 3 2 0 0 Z " fill="#8F83E0" transform="translate(265,130)"/>
<path d="M0 0 C2.48862878 3.23521742 4.75421558 6.59260295 7 10 C5.35 9.67 3.7 9.34 2 9 C2 7.68 2 6.36 2 5 C1.34 5 0.68 5 0 5 C0 3.35 0 1.7 0 0 Z " fill="#857FE0" transform="translate(127,332)"/>
<path d="M0 0 C1.32 0.66 2.64 1.32 4 2 C4 3.98 4 5.96 4 8 C3.67 7.34 3.34 6.68 3 6 C2.34 6 1.68 6 1 6 C-0.0625 4.125 -0.0625 4.125 -1 2 C-0.67 1.34 -0.34 0.68 0 0 Z " fill="#987EF4" transform="translate(129,193)"/>
<path d="M0 0 C0.99 0.33 1.98 0.66 3 1 C2.67 1.99 2.34 2.98 2 4 C1.01 4.33 0.02 4.66 -1 5 C-1 4.34 -1 3.68 -1 3 C-3.31 3.33 -5.62 3.66 -8 4 C-8 3.34 -8 2.68 -8 2 C-5.36 2 -2.72 2 0 2 C0 1.34 0 0.68 0 0 Z " fill="#9581FC" transform="translate(222,147)"/>
<path d="M0 0 C1.32 1.65 2.64 3.3 4 5 C3.67 5.66 3.34 6.32 3 7 C1.0625 6.6875 1.0625 6.6875 -1 6 C-1.33 5.01 -1.66 4.02 -2 3 C-1.34 3 -0.68 3 0 3 C0 2.01 0 1.02 0 0 Z M-3 5 C-2.34 5.66 -1.68 6.32 -1 7 C-1.66 7 -2.32 7 -3 7 C-3 6.34 -3 5.68 -3 5 Z " fill="#7F7FE8" transform="translate(454,63)"/>
<path d="M0 0 C0.99 0.99 1.98 1.98 3 3 C2.34 3 1.68 3 1 3 C0.67 3.99 0.34 4.98 0 6 C-0.66 6 -1.32 6 -2 6 C-2.33 4.35 -2.66 2.7 -3 1 C-2.01 0.67 -1.02 0.34 0 0 Z " fill="#437FFD" transform="translate(427,432)"/>
<path d="M0 0 C0.99 0.33 1.98 0.66 3 1 C1.35 3.64 -0.3 6.28 -2 9 C-2.66 8.34 -3.32 7.68 -4 7 C-3.67 6.01 -3.34 5.02 -3 4 C-2.01 4 -1.02 4 0 4 C0 2.68 0 1.36 0 0 Z " fill="#767FE4" transform="translate(309,284)"/>
<path d="M0 0 C0.33 0.66 0.66 1.32 1 2 C-0.98 4.64 -2.96 7.28 -5 10 C-5.66 9.67 -6.32 9.34 -7 9 C-4.69 6.03 -2.38 3.06 0 0 Z " fill="#9383E1" transform="translate(168,176)"/>
<path d="M0 0 C-1.32 1.32 -2.64 2.64 -4 4 C-4 3.34 -4 2.68 -4 2 C-5.65 2 -7.3 2 -9 2 C-5.945634 -1.054366 -3.9532319 -1.22686507 0 0 Z " fill="#947FF4" transform="translate(188,164)"/>
<path d="M0 0 C-1.1875 1.5 -1.1875 1.5 -3 3 C-5.6875 3.1875 -5.6875 3.1875 -8 3 C-8.33 2.34 -8.66 1.68 -9 1 C-6.04335481 -0.4783226 -3.25770263 -0.06032783 0 0 Z " fill="#4C83F7" transform="translate(356,472)"/>
<path d="M0 0 C2.97 0.495 2.97 0.495 6 1 C5.67 2.32 5.34 3.64 5 5 C3.35 4.67 1.7 4.34 0 4 C0 2.68 0 1.36 0 0 Z " fill="#9F87FB" transform="translate(166,144)"/>
<path d="M0 0 C4.6875 0.78125 4.6875 0.78125 9.375 1.5625 C10.674375 1.7790625 10.674375 1.7790625 12 2 C12 2.33 12 2.66 12 3 C10.56344146 3.08131463 9.1255517 3.13933559 7.6875 3.1875 C6.48673828 3.23970703 6.48673828 3.23970703 5.26171875 3.29296875 C2.52148416 2.93801608 1.70828921 2.10633718 0 0 Z " fill="#7D83EC" transform="translate(105,471)"/>
<path d="M0 0 C1.9375 0.3125 1.9375 0.3125 4 1 C4.33 1.99 4.66 2.98 5 4 C3.02 4.99 3.02 4.99 1 6 C0.67 4.02 0.34 2.04 0 0 Z " fill="#9B7EFA" transform="translate(136,176)"/>
<path d="M0 0 C0.99 0.33 1.98 0.66 3 1 C-0.465 3.97 -0.465 3.97 -4 7 C-4.66 6.34 -5.32 5.68 -6 5 C-1.60546875 0.99609375 -1.60546875 0.99609375 0 0 Z " fill="#B47DFA" transform="translate(56,23)"/>
<path d="M0 0 C2 2 2 2 2 5 C0.02 5.66 -1.96 6.32 -4 7 C-3.34 5.68 -2.68 4.36 -2 3 C-1.34 3 -0.68 3 0 3 C0 2.01 0 1.02 0 0 Z " fill="#B986FB" transform="translate(73,11)"/>
</svg>
